<svg xmlns="http://www.w3.org/2000/svg" width="1024" height="1024" viewBox="0 0 1400 400" fill="none" class="injected-svg" data-src="https://firebasestorage.googleapis.com/v0/b/brandkitpro.appspot.com/o/repositories%2Fmosaico-lab%2Flogos%2Flogo-white.svg?alt=media&amp;token=4c76f90e-dd06-4b96-9a46-3c73df8c29d3" xmlns:xlink="http://www.w3.org/1999/xlink" style="height: 160px; width: 100%" id="svg-600e77">
<g clip-path="url(#clip0_14_30-20)">
<path d="M317.497 266.886L208.555 88.0677L426.438 88.0677L317.497 266.886Z" fill="#E0E0E0" fill-opacity="0.8"/>
<rect x="191.702" y="87.7021" width="80.4501" height="226.723" fill="#E9E9E9" fill-opacity="0.8"/>
<rect x="362.841" y="87.7021" width="80.4501" height="226.723" fill="#E9E9E9" fill-opacity="0.8"/>
<path d="M533.073 268.265C446.714 268.265 446.714 138.901 533.073 138.901C619.433 138.901 619.433 268.265 533.073 268.265ZM533.073 242.286C583.274 242.286 583.274 164.703 533.073 164.703C482.873 164.703 482.873 242.286 533.073 242.286ZM615.515 258.435L618.675 232.106C633.068 242.286 648.69 242.638 654.482 242.111C661.854 241.584 668.173 236.319 667.471 229.473C666.945 222.276 661.503 219.117 654.482 216.659C634.823 209.463 617.27 199.458 617.27 178.394C617.27 157.331 631.839 141.183 652.727 140.13C659.221 139.778 667.822 139.778 683.971 145.395L680.811 169.618C666.945 164.001 659.046 164.177 655.184 164.352C646.232 164.879 642.195 171.373 642.722 178.394C643.424 185.416 649.567 188.575 656.764 191.032C676.248 198.229 693.098 209.463 693.098 229.473C693.098 250.361 678.705 266.334 655.184 267.562C648.163 268.089 632.541 267.211 615.515 258.435ZM702.98 266.509L755.814 136.443H758.447L811.28 266.509H783.02L777.93 252.994H736.33L731.415 266.509H702.98ZM745.457 229.473H768.627L757.218 196.825L745.457 229.473ZM853.99 266.509H828.889V141.007H853.99V266.509ZM962.064 170.145C957.325 167.687 951.181 164.703 940.298 164.703C890.624 164.703 890.624 241.233 940.298 241.233C951.181 241.233 959.782 238.074 964.521 235.616L967.856 261.595C960.133 264.754 949.075 266.86 940.298 266.86C855.168 266.86 855.343 139.427 940.298 139.427C949.075 139.427 957.5 141.007 965.048 144.342L962.064 170.145ZM1048.17 268.265C961.812 268.265 961.812 138.901 1048.17 138.901C1134.53 138.901 1134.53 268.265 1048.17 268.265ZM1048.17 242.286C1098.37 242.286 1098.37 164.703 1048.17 164.703C997.97 164.703 997.97 242.286 1048.17 242.286Z" fill="#F8F8F8"/>
<path d="M1144.41 152.647L1144.41 170.493L1139 170.493L1139 145.992L1189.98 145.992L1189.98 152.647L1144.41 152.647ZM1150.34 207.693L1150.34 185.459L1139 181.364L1139 174.343L1189.68 192.773L1189.68 200.452L1139 218.809L1139 211.788L1150.34 207.693ZM1155.75 205.791L1181.49 196.576L1155.75 187.361L1155.75 205.791ZM1165.26 252.367C1164.96 254.219 1164.21 255.901 1162.99 257.413C1161.77 258.973 1160.26 260.192 1158.45 261.07C1156.65 261.996 1154.72 262.459 1152.68 262.459C1150.09 262.459 1147.75 261.801 1145.66 260.485C1143.61 259.168 1141.97 257.242 1140.76 254.707C1139.59 252.22 1139 249.27 1139 245.857L1139 226.842L1189.98 226.842L1189.98 245.126C1189.98 248.588 1189.39 251.538 1188.22 253.976C1187.1 256.413 1185.56 258.242 1183.61 259.461C1181.66 260.68 1179.47 261.289 1177.03 261.289C1174.01 261.289 1171.5 260.46 1169.5 258.803C1167.55 257.194 1166.13 255.048 1165.26 252.367ZM1167.96 233.497L1167.96 244.687C1167.96 247.808 1168.69 250.221 1170.16 251.928C1171.62 253.634 1173.64 254.487 1176.23 254.487C1178.81 254.487 1180.83 253.634 1182.3 251.928C1183.76 250.221 1184.49 247.759 1184.49 244.541L1184.49 233.497L1167.96 233.497ZM1144.49 245.272C1144.49 248.588 1145.27 251.172 1146.83 253.025C1148.39 254.878 1150.56 255.804 1153.33 255.804C1156.16 255.804 1158.38 254.829 1159.99 252.878C1161.65 250.928 1162.48 248.32 1162.48 245.053L1162.48 233.497L1144.49 233.497L1144.49 245.272Z" fill="#E8E8E8"/>
</g>
<defs>
<clipPath id="clip0_14_30-20">
<rect width="1040" height="250.127" fill="white" transform="translate(180 76)"/>
</clipPath>
</defs>
</svg>